<svg xmlns="http://www.w3.org/2000/svg" viewBox="0 0 100 100">
  <!-- Background -->
  <rect width="100" height="100" fill="#ffffff" rx="20"/>
  
  <!-- Left child silhouette -->
  <circle cx="30" cy="25" r="8" fill="#FF6B6B"/>
  <path d="M 25 35 Q 25 40 30 40 Q 35 40 35 35 L 35 50 M 27 42 L 20 55 M 33 42 L 40 55" 
        stroke="#FF6B6B" stroke-width="3" fill="none" stroke-linecap="round"/>
  
  <!-- Right child silhouette -->
  <circle cx="70" cy="25" r="8" fill="#4ECDC4"/>
  <path d="M 65 35 Q 65 40 70 40 Q 75 40 75 35 L 75 50 M 67 42 L 60 55 M 73 42 L 80 55" 
        stroke="#4ECDC4" stroke-width="3" fill="none" stroke-linecap="round"/>
  
  <!-- Holding hands -->
  <line x1="35" y1="45" x2="65" y2="45" stroke="#863BFF" stroke-width="3" stroke-linecap="round"/>
  
  <!-- Heart accent -->
  <path d="M 50 60 C 50 65 45 70 40 70 C 35 70 32 67 32 63 C 32 67 29 70 24 70 C 19 70 15 65 15 60 Q 15 50 32 50 Q 50 60 50 50 Q 68 50 85 60 Q 85 65 81 70 C 76 70 73 67 73 63 C 73 67 70 70 65 70 C 60 70 55 65 55 60 Z" 
        fill="#FFD93D" opacity="0.3"/>
</svg>